/* XPM */
static char * ksexit_xpm[] = {
"16 16 6 1",
" 	c None",
".	c #303030",
"X	c white",
"o	c #c3c3c3",
"O	c #a0a0a0",
"+	c #808080",
"     .....      ",
"   ..XXXXX..    ",
"  .XXooooooO.   ",
" .Xooo...ooo+.  ",
" .oooo.+Xooo+.  ",
".Xoooo.+Xoooo+. ",
".Xoooo.+Xoooo+. ",
".Xoooo.+Xoooo+. ",
".Xoooo.+Xoooo+. ",
".Xoooo.+Xoooo+. ",
" .oooo.+Xooo+.  ",
" .Xooo.XXooo+.  ",
"  .++ooooo++.   ",
"   ..+++++..    ",
"     .....      ",
"                "};
