/* XPM */
static char * ksslide_xpm[] = {
"16 16 3 1",
" 	c None",
".	c #303030",
"X	c #dcdcdc",
"                ",
"      ..........",
"      .XXXXXXXX.",
"    ..........X.",
"    .XXXXXXXX.X.",
"  ..........X.X.",
"  .XXXXXXXX.X.X.",
"..........X.X.X.",
".XXXXXXXX.X.X.X.",
".X......X.X.X...",
".X......X.X.X.  ",
".X......X.X...  ",
".X......X.X.    ",
".XXXXXXXX...    ",
".XXXXXXXX.      ",
"..........      "};
